<?xml version="1.0" encoding="UTF-8" standalone="no"?>
<!DOCTYPE svg PUBLIC "-//W3C//DTD SVG 1.1//EN" "http://www.w3.org/Graphics/SVG/1.1/DTD/svg11.dtd">
<svg width="100%" height="100%" viewBox="0 0 640 400" version="1.1" xmlns="http://www.w3.org/2000/svg" xmlns:xlink="http://www.w3.org/1999/xlink" xml:space="preserve" xmlns:serif="http://www.serif.com/" style="fill-rule:evenodd;clip-rule:evenodd;stroke-linejoin:round;">
    <rect x="0" y="0" width="640" height="400" style="fill:white;"/>
    <rect x="43.582" y="11.811" width="584.608" height="345.839" style="fill:white;"/>
    <g transform="matrix(1,0,0,1,-165.886,-112.261)">
        <text x="334.349px" y="269.976px" style="font-family:'ArialMT', 'Arial', sans-serif;font-size:15px;">overall average</text>
    </g>
    <g transform="matrix(1,0,0,1,-165.652,-223.179)">
        <text x="334.349px" y="269.976px" style="font-family:'ArialMT', 'Arial', sans-serif;font-size:15px;">two prime neighbors</text>
    </g>
    <g transform="matrix(1,0,0,1,-165.886,-173.226)">
        <text x="334.349px" y="269.976px" style="font-family:'ArialMT', 'Arial', sans-serif;font-size:15px;">one prime neighbor</text>
    </g>
    <g transform="matrix(1,0,0,1,-165.681,-82.6998)">
        <text x="334.349px" y="269.976px" style="font-family:'ArialMT', 'Arial', sans-serif;font-size:15px;">zero prime neighbors</text>
    </g>
    <path d="M43.582,357.65L43.582,11.811" style="fill:none;fill-rule:nonzero;stroke:black;stroke-opacity:0.1;stroke-width:0.5px;"/>
    <path d="M160.27,357.65L160.27,11.811" style="fill:none;fill-rule:nonzero;stroke:black;stroke-opacity:0.1;stroke-width:0.5px;"/>
    <path d="M276.958,357.65L276.958,11.811" style="fill:none;fill-rule:nonzero;stroke:black;stroke-opacity:0.1;stroke-width:0.5px;"/>
    <path d="M393.645,357.65L393.645,11.811" style="fill:none;fill-rule:nonzero;stroke:black;stroke-opacity:0.1;stroke-width:0.5px;"/>
    <path d="M510.335,357.65L510.335,11.811" style="fill:none;fill-rule:nonzero;stroke:black;stroke-opacity:0.1;stroke-width:0.5px;"/>
    <path d="M627.023,357.65L627.023,11.811" style="fill:none;fill-rule:nonzero;stroke:black;stroke-opacity:0.1;stroke-width:0.5px;"/>
    <path d="M43.582,357.65L628.19,357.65" style="fill:none;fill-rule:nonzero;stroke:black;stroke-width:1px;"/>
    <path d="M43.582,357.65L43.582,352.925" style="fill:none;fill-rule:nonzero;stroke:black;stroke-width:1px;"/>
    <path d="M160.27,357.65L160.27,352.925" style="fill:none;fill-rule:nonzero;stroke:black;stroke-width:1px;"/>
    <path d="M276.958,357.65L276.958,352.925" style="fill:none;fill-rule:nonzero;stroke:black;stroke-width:1px;"/>
    <path d="M393.645,357.65L393.645,352.925" style="fill:none;fill-rule:nonzero;stroke:black;stroke-width:1px;"/>
    <path d="M510.335,357.65L510.335,352.925" style="fill:none;fill-rule:nonzero;stroke:black;stroke-width:1px;"/>
    <path d="M627.023,357.65L627.023,352.925" style="fill:none;fill-rule:nonzero;stroke:black;stroke-width:1px;"/>
    <g transform="matrix(1,0,0,1,43.5823,373.433)">
        <text x="-3.337px" y="0px" style="font-family:'ArialMT', 'Arial', sans-serif;font-size:12px;">0</text>
    </g>
    <g transform="matrix(1,0,0,1,160.27,373.433)">
        <text x="-6.674px" y="0px" style="font-family:'ArialMT', 'Arial', sans-serif;font-size:12px;">20</text>
    </g>
    <g transform="matrix(1,0,0,1,276.957,373.433)">
        <text x="-6.674px" y="0px" style="font-family:'ArialMT', 'Arial', sans-serif;font-size:12px;">40</text>
    </g>
    <g transform="matrix(1,0,0,1,393.645,373.433)">
        <text x="-6.674px" y="0px" style="font-family:'ArialMT', 'Arial', sans-serif;font-size:12px;">60</text>
    </g>
    <g transform="matrix(1,0,0,1,510.335,373.433)">
        <text x="-6.674px" y="0px" style="font-family:'ArialMT', 'Arial', sans-serif;font-size:12px;">80</text>
    </g>
    <g transform="matrix(1,0,0,1,627.023,373.433)">
        <text x="-10.011px" y="0px" style="font-family:'ArialMT', 'Arial', sans-serif;font-size:12px;">100</text>
    </g>
    <g transform="matrix(1,0,0,1,335.885,394.715)">
        <g>
            <text x="-39.88px" y="0px" style="font-family:'Arial-ItalicMT', 'Arial', sans-serif;font-style:italic;font-size:16.5px;">n</text>
            <text x="-26.12px" y="0px" style="font-family:'ArialMT', 'Arial', sans-serif;font-size:16.5px;">(millions)</text>
        </g>
    </g>
    <path d="M43.582,357.65L628.19,357.65" style="fill:none;fill-rule:nonzero;stroke:black;stroke-opacity:0.1;stroke-width:0.5px;"/>
    <path d="M43.582,308.243L628.19,308.243" style="fill:none;fill-rule:nonzero;stroke:black;stroke-opacity:0.1;stroke-width:0.5px;"/>
    <path d="M43.582,258.837L628.19,258.837" style="fill:none;fill-rule:nonzero;stroke:black;stroke-opacity:0.1;stroke-width:0.5px;"/>
    <path d="M43.582,209.433L628.19,209.433" style="fill:none;fill-rule:nonzero;stroke:black;stroke-opacity:0.1;stroke-width:0.5px;"/>
    <path d="M43.582,160.027L628.19,160.027" style="fill:none;fill-rule:nonzero;stroke:black;stroke-opacity:0.1;stroke-width:0.5px;"/>
    <path d="M43.582,110.622L628.19,110.622" style="fill:none;fill-rule:nonzero;stroke:black;stroke-opacity:0.1;stroke-width:0.5px;"/>
    <path d="M43.582,61.217L628.19,61.217" style="fill:none;fill-rule:nonzero;stroke:black;stroke-opacity:0.1;stroke-width:0.5px;"/>
    <path d="M43.582,11.811L628.19,11.811" style="fill:none;fill-rule:nonzero;stroke:black;stroke-opacity:0.1;stroke-width:0.5px;"/>
    <path d="M43.582,357.65L43.582,11.811" style="fill:none;fill-rule:nonzero;stroke:black;stroke-width:1px;"/>
    <path d="M43.582,357.65L48.307,357.65" style="fill:none;fill-rule:nonzero;stroke:black;stroke-width:1px;"/>
    <path d="M43.582,308.243L48.307,308.243" style="fill:none;fill-rule:nonzero;stroke:black;stroke-width:1px;"/>
    <path d="M43.582,258.837L48.307,258.837" style="fill:none;fill-rule:nonzero;stroke:black;stroke-width:1px;"/>
    <path d="M43.582,209.433L48.307,209.433" style="fill:none;fill-rule:nonzero;stroke:black;stroke-width:1px;"/>
    <path d="M43.582,160.027L48.307,160.027" style="fill:none;fill-rule:nonzero;stroke:black;stroke-width:1px;"/>
    <path d="M43.582,110.622L48.307,110.622" style="fill:none;fill-rule:nonzero;stroke:black;stroke-width:1px;"/>
    <path d="M43.582,61.217L48.307,61.217" style="fill:none;fill-rule:nonzero;stroke:black;stroke-width:1px;"/>
    <path d="M43.582,11.811L48.307,11.811" style="fill:none;fill-rule:nonzero;stroke:black;stroke-width:1px;"/>
    <g transform="matrix(1,0,0,1,30.637,362.025)">
        <text x="-3.337px" y="0px" style="font-family:'ArialMT', 'Arial', sans-serif;font-size:12px;">0</text>
    </g>
    <g transform="matrix(1,0,0,1,30.637,312.618)">
        <text x="-3.337px" y="0px" style="font-family:'ArialMT', 'Arial', sans-serif;font-size:12px;">1</text>
    </g>
    <g transform="matrix(1,0,0,1,30.637,263.212)">
        <text x="-3.337px" y="0px" style="font-family:'ArialMT', 'Arial', sans-serif;font-size:12px;">2</text>
    </g>
    <g transform="matrix(1,0,0,1,30.637,213.808)">
        <text x="-3.337px" y="0px" style="font-family:'ArialMT', 'Arial', sans-serif;font-size:12px;">3</text>
    </g>
    <g transform="matrix(1,0,0,1,30.637,164.402)">
        <text x="-3.337px" y="0px" style="font-family:'ArialMT', 'Arial', sans-serif;font-size:12px;">4</text>
    </g>
    <g transform="matrix(1,0,0,1,30.637,114.997)">
        <text x="-3.337px" y="0px" style="font-family:'ArialMT', 'Arial', sans-serif;font-size:12px;">5</text>
    </g>
    <g transform="matrix(1,0,0,1,30.637,65.5915)">
        <text x="-3.337px" y="0px" style="font-family:'ArialMT', 'Arial', sans-serif;font-size:12px;">6</text>
    </g>
    <g transform="matrix(1,0,0,1,30.637,16.186)">
        <text x="-3.337px" y="0px" style="font-family:'ArialMT', 'Arial', sans-serif;font-size:12px;">7</text>
    </g>
    <g transform="matrix(-3.82857e-16,-1,1,-3.82857e-16,14.8011,184.73)">
        <g>
            <text x="-134.816px" y="0px" style="font-family:'ArialMT', 'Arial', sans-serif;font-size:16.5px;">average number of prime factors in</text>
            <text x="125.639px" y="0px" style="font-family:'Arial-ItalicMT', 'Arial', sans-serif;font-style:italic;font-size:16.5px;">n</text>
        </g>
    </g>
    <path d="M44.749,196.862L45.916,189.925L47.083,187.48L48.25,186.155L49.417,184.982L50.584,184.201L51.75,183.454L52.917,182.889L54.084,182.419L55.251,181.932L56.418,181.544L57.585,181.222L58.752,180.929L59.919,180.59L61.086,180.357L62.252,180.104L63.419,179.844L64.586,179.56L65.753,179.379L66.92,179.196L68.087,179.016L69.254,178.857L70.421,178.722L71.587,178.566L72.754,178.433L73.921,178.19L75.088,178.168L76.255,177.955L77.422,177.806L78.589,177.754L79.756,177.545L80.922,177.432L82.089,177.385L83.256,177.284L84.423,177.216L85.59,177.016L86.757,176.942L87.924,176.773L89.091,176.765L90.257,176.654L91.424,176.596L92.591,176.5L93.758,176.478L94.925,176.371L96.092,176.19L97.259,176.133L98.426,176.071L99.593,176.057L100.759,175.908L101.926,175.805L103.093,175.798L104.26,175.785L105.427,175.714L106.594,175.606L107.76,175.632L108.927,175.456L110.094,175.431L111.261,175.41L112.428,175.332L113.595,175.199L114.762,175.184L115.929,175.196L117.096,175.098L118.263,175.082L119.43,174.871L120.596,174.822L121.763,174.915L122.93,174.717L124.097,174.819L125.264,174.643L126.431,174.683L127.598,174.691L128.765,174.572L129.931,174.495L131.098,174.416L132.265,174.378L133.432,174.365L134.599,174.372L135.766,174.267L136.933,174.312L138.1,174.172L139.266,174.134L140.433,174.102L141.6,174.179L142.767,174.109L143.934,173.934L145.101,174.096L146.268,173.971L147.435,173.874L148.601,173.92L149.768,173.711L150.935,173.765L152.102,173.786L153.269,173.733L154.436,173.751L155.603,173.54L156.77,173.586L157.937,173.587L159.103,173.568L160.27,173.539L161.437,173.41L162.604,173.431L163.771,173.41L164.938,173.335L166.105,173.325L167.272,173.319L168.438,173.302L169.605,173.242L170.772,173.249L171.939,173.203L173.106,173.105L174.273,173.072L175.44,173.101L176.607,173.087L177.774,173.085L178.94,173.041L180.107,173.028L181.274,172.902L182.441,172.876L183.608,172.922L184.775,172.87L185.942,172.874L187.109,172.825L188.275,172.704L189.442,172.729L190.609,172.746L191.776,172.689L192.943,172.7L194.11,172.613L195.277,172.685L196.444,172.567L197.61,172.562L198.777,172.67L199.944,172.448L201.111,172.609L202.278,172.483L203.445,172.459L204.612,172.561L205.779,172.404L206.945,172.381L208.112,172.367L209.279,172.416L210.446,172.311L211.613,172.327L212.78,172.249L213.947,172.197L215.113,172.277L216.28,172.226L217.447,172.194L218.614,172.21L219.781,172.237L220.948,172.148L222.115,172.12L223.282,172.153L224.449,172.036L225.616,172.016L226.782,172.026L227.949,172.011L229.116,171.976L230.283,171.998L231.45,171.934L232.617,171.987L233.784,171.99L234.951,171.828L236.117,171.813L237.284,171.835L238.451,171.923L239.618,171.752L240.785,171.731L241.952,171.766L243.119,171.634L244.286,171.657L245.452,171.81L246.619,171.701L247.786,171.745L248.953,171.602L250.12,171.606L251.288,171.555L252.452,171.608L253.62,171.573L254.788,171.526L255.955,171.601L257.12,171.519L258.288,171.494L259.455,171.422L260.623,171.567L261.788,171.383L262.955,171.478L264.123,171.349L265.29,171.349L266.455,171.478L267.623,171.43L268.79,171.41L269.958,171.361L271.125,171.372L272.29,171.358L273.458,171.354L274.625,171.313L275.793,171.281L276.958,171.195L278.125,171.244L279.293,171.228L280.46,171.136L281.625,171.309L282.793,171.14L283.96,171.253L285.128,171.027L286.293,171.184L287.46,171.18L288.628,171.042L289.795,171.107L290.96,171.125L292.128,170.995L293.295,171.034L294.463,170.904L295.628,170.992L296.795,170.975L297.963,170.977L299.13,170.936L300.295,170.969L301.463,170.924L302.63,170.874L303.798,170.938L304.963,170.925L306.13,170.878L307.298,170.851L308.465,170.943L309.63,170.856L310.798,170.807L311.965,170.843L313.133,170.763L314.298,170.758L315.465,170.76L316.633,170.768L317.8,170.713L318.965,170.747L320.133,170.714L321.3,170.659L322.467,170.625L323.633,170.617L324.8,170.659L325.967,170.616L327.135,170.579L328.3,170.571L329.467,170.647L330.635,170.571L331.803,170.617L332.967,170.622L334.135,170.498L335.303,170.571L336.47,170.547L337.635,170.553L338.803,170.547L339.97,170.528L341.138,170.481L342.303,170.489L343.47,170.558L344.638,170.469L345.805,170.527L346.97,170.499L348.138,170.391L349.305,170.403L350.473,170.383L351.638,170.344L352.805,170.368L353.973,170.351L355.14,170.331L356.305,170.283L357.473,170.301L358.64,170.285L359.808,170.212L360.973,170.243L362.14,170.279L363.308,170.298L364.475,170.195L365.64,170.292L366.808,170.206L367.975,170.138L369.143,170.25L370.308,170.224L371.475,170.28L372.643,170.132L373.81,170.132L374.975,170.235L376.143,170.068L377.31,170.036L378.478,170.16L379.643,170.145L380.81,170.039L381.978,169.98L383.145,170.059L384.31,170.089L385.478,170.106L386.645,170.13L387.813,169.969L388.978,170.041L390.145,169.891L391.313,170.032L392.48,170.047L393.645,170.064L394.813,169.978L395.98,170.076L397.148,169.9L398.313,169.929L399.48,169.978L400.648,169.842L401.815,169.907L402.98,169.868L404.148,169.879L405.315,169.965L406.483,169.836L407.648,169.881L408.815,169.799L409.983,169.806L411.15,169.807L412.315,169.8L413.483,169.808L414.65,169.868L415.818,169.801L416.983,169.784L418.15,169.792L419.318,169.821L420.485,169.72L421.652,169.717L422.818,169.702L423.985,169.746L425.152,169.618L426.32,169.732L427.485,169.645L428.652,169.757L429.82,169.708L430.988,169.82L432.152,169.587L433.32,169.676L434.488,169.573L435.655,169.558L436.82,169.752L437.988,169.595L439.155,169.584L440.323,169.623L441.488,169.541L442.655,169.553L443.823,169.539L444.99,169.497L446.155,169.489L447.323,169.54L448.49,169.457L449.658,169.5L450.823,169.576L451.99,169.447L453.158,169.554L454.325,169.409L455.49,169.567L456.658,169.393L457.825,169.496L458.993,169.407L460.158,169.468L461.325,169.509L462.493,169.302L463.66,169.475L464.825,169.493L465.993,169.419L467.16,169.383L468.328,169.322L469.493,169.458L470.66,169.315L471.828,169.33L472.995,169.411L474.16,169.328L475.328,169.283L476.495,169.32L477.663,169.214L478.828,169.318L479.995,169.321L481.163,169.249L482.33,169.283L483.495,169.381L484.663,169.218L485.83,169.247L486.998,169.294L488.163,169.224L489.33,169.249L490.498,169.11L491.665,169.217L492.83,169.275L493.998,169.212L495.165,169.223L496.333,169.116L497.498,169.187L498.665,169.291L499.833,169.195L501,169.217L502.165,169.047L503.333,169.085L504.5,169.128L505.668,169.099L506.833,169.065L508,169.124L509.168,169.148L510.335,169.012L511.5,169.104L512.668,169.162L513.835,169.051L515.003,169.148L516.168,169.115L517.335,169.138L518.503,169.015L519.67,169.025L520.835,168.917L522.003,169.052L523.17,169.012L524.338,168.999L525.503,169.024L526.67,169.034L527.838,169.078L529.005,168.988L530.17,168.964L531.338,169.019L532.505,168.922L533.673,169.058L534.838,168.791L536.005,168.925L537.173,168.889L538.34,168.971L539.505,168.866L540.673,168.889L541.84,168.955L543.008,168.916L544.173,168.891L545.34,168.871L546.508,168.847L547.675,168.856L548.84,168.853L550.008,168.865L551.175,168.812L552.343,168.772L553.508,168.843L554.675,168.773L555.843,168.738L557.01,168.847L558.175,168.826L559.343,168.781L560.51,168.768L561.678,168.797L562.843,168.847L564.01,168.788L565.178,168.725L566.345,168.727L567.51,168.605L568.678,168.737L569.845,168.797L571.013,168.736L572.178,168.71L573.345,168.714L574.513,168.745L575.68,168.71L576.848,168.712L578.013,168.691L579.18,168.714L580.348,168.634L581.515,168.689L582.68,168.609L583.848,168.619L585.015,168.733L586.183,168.552L587.348,168.665L588.515,168.674L589.683,168.539L590.85,168.583L592.015,168.673L593.183,168.633L594.35,168.569L595.518,168.623L596.683,168.548L597.85,168.702L599.018,168.593L600.185,168.586L601.35,168.585L602.518,168.474L603.685,168.712L604.853,168.408L606.018,168.508L607.185,168.504L608.353,168.615L609.52,168.49L610.685,168.544L611.853,168.5L613.02,168.531L614.188,168.536L615.353,168.445L616.52,168.45L617.688,168.474L618.855,168.426L620.02,168.319L621.188,168.378L622.355,168.377L623.523,168.418L624.688,168.39L625.855,168.441L627.023,168.412" style="fill:none;fill-rule:nonzero;stroke:rgb(229,102,51);stroke-width:1.5px;"/>
    <path d="M44.749,128.511L45.916,120.87L47.083,119.037L48.25,116.802L49.417,116.1L50.584,115.58L51.75,114.564L52.917,113.833L54.084,113.519L55.251,113.514L56.418,113.309L57.585,112.646L58.752,111.993L59.919,111.681L61.086,111.431L62.252,111.121L63.419,111.074L64.586,110.912L65.753,111.22L66.92,110.593L68.087,110.612L69.254,109.805L70.421,109.946L71.587,109.486L72.754,109.881L73.921,109.683L75.088,109.144L76.255,109.004L77.422,108.926L78.589,108.766L79.756,109.123L80.922,109.032L82.089,108.527L83.256,108.161L84.423,108.406L85.59,108.495L86.757,108.175L87.924,108.596L89.091,107.755L90.257,108.195L91.424,107.647L92.591,107.738L93.758,107.162L94.925,107.515L96.092,107.927L97.259,107.37L98.426,107.659L99.593,106.947L100.759,107.452L101.926,106.992L103.093,107.109L104.26,106.828L105.427,106.803L106.594,106.809L107.76,106.454L108.927,107.081L110.094,106.225L111.261,106.282L112.428,106.516L113.595,107.074L114.762,106.388L115.929,106.044L117.096,105.914L118.263,106.209L119.43,106.809L120.596,106.501L121.763,105.879L122.93,106.293L124.097,106.188L125.264,106.263L126.431,105.687L127.598,105.949L128.765,105.708L129.931,105.985L131.098,105.851L132.265,105.92L133.432,105.6L134.599,105.897L135.766,105.695L136.933,105.478L138.1,105.363L139.266,105.664L140.433,105.448L141.6,105.075L142.767,104.889L143.934,105.478L145.101,104.864L146.268,105.601L147.435,104.966L148.601,105.074L149.768,105.243L150.935,105.518L152.102,104.746L153.269,104.719L154.436,104.489L155.603,105.456L156.77,105.023L157.937,104.211L159.103,104.906L160.27,104.624L161.437,105.385L162.604,104.354L163.771,104.863L164.938,105.034L166.105,104.442L167.272,104.459L168.438,104.275L169.605,104.74L170.772,104.295L171.939,104.592L173.106,104.318L174.273,104.511L175.44,104.632L176.607,104.191L177.774,104.073L178.94,103.998L180.107,104.17L181.274,104.764L182.441,104.495L183.608,104.106L184.775,104.19L185.942,104.307L187.109,103.882L188.275,105.093L189.442,104.016L190.609,103.948L191.776,103.81L192.943,104.027L194.11,104.356L195.277,103.742L196.444,103.982L197.61,104.191L198.777,103.599L199.944,104.2L201.111,103.425L202.278,103.907L203.445,103.681L204.612,103.257L205.779,103.707L206.945,103.647L208.112,103.504L209.279,103.585L210.446,103.876L211.613,103.422L212.78,103.495L213.947,103.975L215.113,103.208L216.28,103.153L217.447,103.484L218.614,103.87L219.781,103.288L220.948,103.546L222.115,103.365L223.282,103.127L224.449,103.38L225.616,103.04L226.782,103.482L227.949,103.007L229.116,103.183L230.283,103.367L231.45,103.212L232.617,102.919L233.784,102.945L234.951,103.649L236.117,103.763L237.284,102.99L238.451,102.687L239.618,103.357L240.785,103.75L241.952,102.818L243.119,103.153L244.286,102.894L245.452,102.556L246.619,102.555L247.786,102.696L248.953,102.99L250.12,103.487L251.288,103.306L252.452,102.956L253.62,102.699L254.788,103.046L255.955,102.877L257.12,103.23L258.288,102.69L259.455,102.823L260.623,102.8L261.788,103.317L262.955,102.533L264.123,103.504L265.29,102.824L266.455,102.489L267.623,102.503L268.79,102.255L269.958,102.92L271.125,102.478L272.29,102.205L273.458,102.838L274.625,102.38L275.793,103.076L276.958,102.442L278.125,102.392L279.293,103.125L280.46,102.538L281.625,102.158L282.793,102.209L283.96,102.146L285.128,102.826L286.293,101.497L287.46,101.776L288.628,102.394L289.795,102.267L290.96,102.457L292.128,102.803L293.295,102.509L294.463,102.743L295.628,102.411L296.795,102.387L297.963,102.836L299.13,101.868L300.295,102.541L301.463,102.04L302.63,102.546L303.798,102.225L304.963,102.553L306.13,102.036L307.298,102.429L308.465,102.476L309.63,102.609L310.798,102.232L311.965,101.948L313.133,102.189L314.298,102.146L315.465,101.85L316.633,102.439L317.8,102.388L318.965,101.804L320.133,102.013L321.3,101.972L322.467,102.028L323.633,102.647L324.8,101.594L325.967,102.289L327.135,102.132L328.3,101.802L329.467,101.818L330.635,102.164L331.803,102.145L332.967,101.969L334.135,102.391L335.303,101.815L336.47,101.272L337.635,101.51L338.803,101.686L339.97,101.695L341.138,101.707L342.303,101.111L343.47,101.651L344.638,101.685L345.805,100.787L346.97,101.269L348.138,101.648L349.305,101.628L350.473,101.443L351.638,102.226L352.805,101.809L353.973,101.544L355.14,102.068L356.305,101.427L357.473,101.877L358.64,102.078L359.808,102.049L360.973,101.472L362.14,101.567L363.308,101.062L364.475,101.775L365.64,101.433L366.808,101.845L367.975,101.673L369.143,101.599L370.308,101.5L371.475,101.596L372.643,101.092L373.81,101.474L374.975,101.706L376.143,101.822L377.31,102.025L378.478,101.861L379.643,100.964L380.81,101.47L381.978,101.898L383.145,101.241L384.31,101.472L385.478,100.85L386.645,100.92L387.813,101.653L388.978,100.911L390.145,101.606L391.313,101.422L392.48,101.047L393.645,100.303L394.813,100.842L395.98,100.649L397.148,101.498L398.313,101.977L399.48,101.428L400.648,101.158L401.815,101.004L402.98,101.337L404.148,101.014L405.315,100.558L406.483,101.73L407.648,100.962L408.815,101.263L409.983,101.821L411.15,101.009L412.315,101.207L413.483,101.213L414.65,100.632L415.818,101.31L416.983,101.658L418.15,100.857L419.318,100.735L420.485,101.009L421.652,100.479L422.818,101.179L423.985,100.702L425.152,101.527L426.32,101.242L427.485,101.266L428.652,101.072L429.82,101.289L430.988,100.33L432.152,101.638L433.32,100.615L434.488,101.286L435.655,101.146L436.82,100.35L437.988,101.629L439.155,100.802L440.323,100.979L441.488,100.96L442.655,101.047L443.823,101.079L444.99,101.168L446.155,101.489L447.323,100.531L448.49,101.592L449.658,101.375L450.823,100.574L451.99,100.703L453.158,100.413L454.325,101.359L455.49,100.407L456.658,100.684L457.825,100.5L458.993,101.169L460.158,100.41L461.325,101.227L462.493,101.095L463.66,100.41L464.825,100.523L465.993,100.922L467.16,100.426L468.328,100.925L469.493,100.74L470.66,100.642L471.828,100.977L472.995,100.167L474.16,100.45L475.328,101.213L476.495,100.166L477.663,101.679L478.828,100.511L479.995,100.54L481.163,100.929L482.33,100.708L483.495,100.237L484.663,101.039L485.83,101.121L486.998,100.915L488.163,100.578L489.33,100.031L490.498,100.939L491.665,100.336L492.83,100.326L493.998,100.624L495.165,100.176L496.333,100.858L497.498,100.117L498.665,99.469L499.833,100.421L501,99.327L502.165,101.329L503.333,101.101L504.5,100.213L505.668,100.894L506.833,100.619L508,100.309L509.168,100.399L510.335,100.819L511.5,99.878L512.668,100.101L513.835,100.634L515.003,99.805L516.168,100.162L517.335,100.392L518.503,100.284L519.67,100.676L520.835,100.766L522.003,100.645L523.17,100.176L524.338,100.104L525.503,100.222L526.67,100.186L527.838,99.684L529.005,99.432L530.17,100.128L531.338,99.9L532.505,100.066L533.673,100.444L534.838,100.534L536.005,100.084L537.173,100.701L538.34,99.806L539.505,100.383L540.673,99.99L541.84,99.534L543.008,100.083L544.173,100.16L545.34,100.538L546.508,100.477L547.675,100.293L548.84,99.991L550.008,100.037L551.175,100.084L552.343,100.642L553.508,99.794L554.675,100.298L555.843,100.482L557.01,100.346L558.175,99.971L559.343,100.498L560.51,99.544L561.678,100.32L562.843,99.869L564.01,100.035L565.178,99.799L566.345,99.815L567.51,100.345L568.678,100.08L569.845,100.352L571.013,99.881L572.178,100.048L573.345,100.156L574.513,99.746L575.68,100.004L576.848,100.001L578.013,99.647L579.18,100.037L580.348,100.174L581.515,99.915L582.68,99.724L583.848,100.12L585.015,99.629L586.183,100.213L587.348,99.675L588.515,99.805L589.683,100.399L590.85,99.856L592.015,99.668L593.183,100.036L594.35,100.03L595.518,99.76L596.683,100.241L597.85,100L599.018,99.28L600.185,99.618L601.35,99.771L602.518,100.191L603.685,99.102L604.853,100.258L606.018,100.283L607.185,100.003L608.353,99.559L609.52,100.174L610.685,98.716L611.853,99.996L613.02,100.41L614.188,99.29L615.353,100.307L616.52,99.476L617.688,100.036L618.855,100.546L620.02,100.228L621.188,99.924L622.355,100.472L623.523,99.614L624.688,100.416L625.855,99.4L627.023,100.366" style="fill:none;fill-rule:nonzero;stroke:rgb(33,191,81);stroke-width:1.5px;"/>
    <path d="M44.749,86.514L45.916,75.04L47.083,73.22L48.25,69.824L49.417,70.936L50.584,68.299L51.75,73.997L52.917,70.244L54.084,69.843L55.251,69.732L56.418,61.772L57.585,63.323L58.752,67.054L59.919,70.388L61.086,67.986L62.252,68.351L63.419,68.15L64.586,64.468L65.753,64.014L66.92,64.193L68.087,65.773L69.254,63.595L70.421,66.443L71.587,64.543L72.754,63.314L73.921,61.03L75.088,62.398L76.255,64.012L77.422,62.906L78.589,64.296L79.756,64.451L80.922,61.356L82.089,62.623L83.256,65.686L84.423,61.535L85.59,62.902L86.757,63.326L87.924,59.997L89.091,64.356L90.257,61.493L91.424,60.978L92.591,62.208L93.758,64.985L94.925,62.753L96.092,61.121L97.259,62.096L98.426,62.647L99.593,64.177L100.759,61.08L101.926,63.779L103.093,60.6L104.26,61.464L105.427,63.433L106.594,63.526L107.76,57.673L108.927,63.081L110.094,62.021L111.261,61.955L112.428,62.125L113.595,56.963L114.762,57.54L115.929,66.646L117.096,61.217L118.263,61.914L119.43,56.125L120.596,62.602L121.763,58.689L122.93,59.657L124.097,57.189L125.264,63.393L126.431,57.616L127.598,59.665L128.765,61.794L129.931,58.572L131.098,60.073L132.265,60.707L133.432,62.073L134.599,54.488L135.766,59.491L136.933,59.031L138.1,62.02L139.266,60.796L140.433,64.348L141.6,60.274L142.767,62.848L143.934,60.648L145.101,56.176L146.268,57.284L147.435,62.091L148.601,57.125L149.768,58.506L150.935,58.63L152.102,58.63L153.269,62.797L154.436,58.663L155.603,61.268L156.77,60.95L157.937,63.142L159.103,61.109L160.27,60.723L161.437,58.6L162.604,63.521L163.771,54.378L164.938,60.849L166.105,60.848L167.272,59.491L168.438,64.542L169.605,56.605L170.772,64.991L171.939,61.935L173.106,60.35L174.273,56.798L175.44,57.871L176.607,58.301L177.774,59.728L178.94,60.945L180.107,56.623L181.274,56.753L182.441,56.974L183.608,56.398L184.775,60.062L185.942,60.889L187.109,61.108L188.275,56.339L189.442,58.73L190.609,57.455L191.776,61.972L192.943,55.265L194.11,58.142L195.277,59.373L196.444,59.664L197.61,58.115L198.777,56.566L199.944,59.916L201.111,56.996L202.278,57.653L203.445,57.989L204.612,57.001L205.779,56.862L206.945,60.633L208.112,58.85L209.279,55.529L210.446,57.695L211.613,57.776L212.78,60.409L213.947,54.966L215.113,64.939L216.28,59.507L217.447,52.601L218.614,59.502L219.781,57.099L220.948,57.46L222.115,54.321L223.282,53.264L224.449,61.327L225.616,57.365L226.782,57.282L227.949,57.438L229.116,56.949L230.283,56.655L231.45,58.861L232.617,55.979L233.784,56.06L234.951,55.155L236.117,55.503L237.284,59.299L238.451,59.222L239.618,60.436L240.785,52.898L241.952,60.994L243.119,59.653L244.286,59.746L245.452,58.022L246.619,54.453L247.786,56.363L248.953,61.217L250.12,57.271L251.288,60.819L252.452,59.922L253.62,59.6L254.788,55.653L255.955,55.217L257.12,53.199L258.288,58.173L259.455,57.476L260.623,56.623L261.788,55.569L262.955,56.031L264.123,54.537L265.29,59.228L266.455,59.3L267.623,59.196L268.79,57.636L269.958,56.304L271.125,53.748L272.29,55.606L273.458,55.853L274.625,60.447L275.793,49.31L276.958,57.957L278.125,58.696L279.293,53.771L280.46,53.676L281.625,56.45L282.793,58.646L283.96,54.757L285.128,58.195L286.293,61.807L287.46,58.976L288.628,55.714L289.795,57.966L290.96,55.567L292.128,51.359L293.295,58.65L294.463,55.133L295.628,56.123L296.795,56.893L297.963,54.376L299.13,57.224L300.295,52.568L301.463,55.529L302.63,57.109L303.798,55.363L304.963,51.324L306.13,51.003L307.298,52.25L308.465,52.837L309.63,50.225L310.798,51.96L311.965,59.141L313.133,55.401L314.298,53.404L315.465,61.556L316.633,56.27L317.8,56.822L318.965,54.382L320.133,56.747L321.3,61.567L322.467,55.553L323.633,53.492L324.8,59.437L325.967,55.565L327.135,55.656L328.3,59.374L329.467,56.644L330.635,57.075L331.803,53.872L332.967,56.446L334.135,53.943L335.303,56.264L336.47,60.295L337.635,60.172L338.803,60.354L339.97,53.472L341.138,55.196L342.303,60.93L343.47,51.062L344.638,52.921L345.805,60.133L346.97,56.335L348.138,60.169L349.305,54.828L350.473,54.966L351.638,54.035L352.805,53.371L353.973,55.38L355.14,55.411L356.305,57.379L357.473,52.207L358.64,55.552L359.808,56.199L360.973,54.898L362.14,55.469L363.308,57.042L364.475,57.548L365.64,53.763L366.808,51.934L367.975,58.672L369.143,55.752L370.308,52.272L371.475,53.664L372.643,56.013L373.81,57.232L374.975,52.195L376.143,56.095L377.31,56.641L378.478,53.526L379.643,53.519L380.81,57.214L381.978,52.972L383.145,64.8L384.31,54.175L385.478,56.929L386.645,55.552L387.813,55.667L388.978,57.434L390.145,59.021L391.313,52.308L392.48,56.078L393.645,60.129L394.813,57.736L395.98,55.825L397.148,54.027L398.313,52.439L399.48,52.142L400.648,53.644L401.815,57.059L402.98,51.216L404.148,54.94L405.315,56.517L406.483,55.597L407.648,54.167L408.815,58.66L409.983,53.746L411.15,57.692L412.315,55.681L413.483,56.873L414.65,56.879L415.818,51.809L416.983,52.289L418.15,53.425L419.318,55.167L420.485,51.143L421.652,59.342L422.818,59.841L423.985,53.738L425.152,53.274L426.32,54.455L427.485,51.202L428.652,53.655L429.82,53.377L430.988,55.003L432.152,50.393L433.32,57.519L434.488,58.778L435.655,56.423L436.82,54.819L437.988,52.591L439.155,56.625L440.323,52.684L441.488,56.897L442.655,53.713L443.823,54.435L444.99,56.475L446.155,49.471L447.323,55.822L448.49,56.3L449.658,55.342L450.823,56.491L451.99,56.477L453.158,54.438L454.325,57.972L455.49,58.623L456.658,54.978L457.825,56.002L458.993,53.118L460.158,54.572L461.325,53.512L462.493,50.201L463.66,55.461L464.825,59.805L465.993,56.375L467.16,55.74L468.328,55.39L469.493,55.734L470.66,53.625L471.828,57.497L472.995,57.972L474.16,58.144L475.328,52.376L476.495,51.953L477.663,55.707L478.828,50.194L479.995,54.071L481.163,54.141L482.33,56.143L483.495,51.407L484.663,50.237L485.83,49.216L486.998,54.91L488.163,53.406L489.33,58.616L490.498,58.348L491.665,49.878L492.83,54.535L493.998,56.602L495.165,54.745L496.333,57.458L497.498,56.758L498.665,57.181L499.833,54.491L501,58.164L502.165,55.625L503.333,54.559L504.5,48.323L505.668,55.879L506.833,56.661L508,53.003L509.168,52.961L510.335,54.799L511.5,53.292L512.668,56.685L513.835,54.789L515.003,60.657L516.168,55.283L517.335,56.607L518.503,55.576L519.67,54.922L520.835,56.258L522.003,51.699L523.17,55.977L524.338,53.788L525.503,55.065L526.67,54.802L527.838,58.401L529.005,57.298L530.17,50.655L531.338,55.95L532.505,58.325L533.673,56.38L534.838,58.68L536.005,56.042L537.173,52.327L538.34,54.204L539.505,53.802L540.673,53.131L541.84,59.944L543.008,59.667L544.173,53.432L545.34,46.991L546.508,50.359L547.675,53.639L548.84,61.155L550.008,56.945L551.175,58.285L552.343,57.911L553.508,55.627L554.675,57.125L555.843,56.348L557.01,49.637L558.175,57.49L559.343,55.278L560.51,54.082L561.678,52.245L562.843,57.009L564.01,53.145L565.178,61.469L566.345,56.043L567.51,55.056L568.678,54.241L569.845,55.43L571.013,56.099L572.178,56.035L573.345,53.273L574.513,52.801L575.68,54.264L576.848,58.835L578.013,53.981L579.18,55.483L580.348,52.856L581.515,54.381L582.68,58.87L583.848,53.405L585.015,53.753L586.183,58.527L587.348,51.737L588.515,51.36L589.683,52.251L590.85,52.804L592.015,53.999L593.183,53.527L594.35,54.018L595.518,51.917L596.683,53.844L597.85,52.867L599.018,57.021L600.185,54.592L601.35,60.343L602.518,51.981L603.685,53.635L604.853,57.083L606.018,48.277L607.185,48.682L608.353,54.062L609.52,54.355L610.685,58.202L611.853,53.162L613.02,52.654L614.188,55.416L615.353,55.85L616.52,50.345L617.688,53.013L618.855,52.223L620.02,56.374L621.188,53.07L622.355,55.848L623.523,54.203L624.688,50.382L625.855,56.395L627.023,50.959" style="fill:none;fill-rule:nonzero;stroke:rgb(33,53,165);stroke-width:1.5px;"/>
    <path d="M44.749,184.854L45.916,179.153L47.083,177.223L48.25,176.014L49.417,175.128L50.584,174.445L51.75,173.872L52.917,173.387L54.084,172.977L55.251,172.607L56.418,172.28L57.585,171.988L58.752,171.712L59.919,171.467L61.086,171.234L62.252,171.023L63.419,170.83L64.586,170.637L65.753,170.467L66.92,170.297L68.087,170.147L69.254,169.992L70.421,169.851L71.587,169.72L72.754,169.592L73.921,169.463L75.088,169.347L76.255,169.238L77.422,169.119L78.589,169.018L79.756,168.92L80.922,168.812L82.089,168.726L83.256,168.634L84.423,168.544L85.59,168.455L86.757,168.374L87.924,168.288L89.091,168.217L90.257,168.129L91.424,168.064L92.591,167.986L93.758,167.916L94.925,167.846L96.092,167.78L97.259,167.706L98.426,167.652L99.593,167.586L100.759,167.529L101.926,167.455L103.093,167.403L104.26,167.344L105.427,167.288L106.594,167.234L107.76,167.18L108.927,167.13L110.094,167.071L111.261,167.015L112.428,166.975L113.595,166.919L114.762,166.872L115.929,166.827L117.096,166.775L118.263,166.734L119.43,166.682L120.596,166.639L121.763,166.598L122.93,166.55L124.097,166.513L125.264,166.467L126.431,166.427L127.598,166.386L128.765,166.35L129.931,166.304L131.098,166.266L132.265,166.226L133.432,166.194L134.599,166.153L135.766,166.113L136.933,166.08L138.1,166.044L139.266,166.01L140.433,165.969L141.6,165.945L142.767,165.901L143.934,165.871L145.101,165.839L146.268,165.808L147.435,165.773L148.601,165.744L149.768,165.701L150.935,165.673L152.102,165.654L153.269,165.614L154.436,165.587L155.603,165.55L156.77,165.527L157.937,165.497L159.103,165.466L160.27,165.435L161.437,165.413L162.604,165.381L163.771,165.358L164.938,165.321L166.105,165.303L167.272,165.271L168.438,165.247L169.605,165.219L170.772,165.194L171.939,165.17L173.106,165.139L174.273,165.112L175.44,165.092L176.607,165.067L177.774,165.04L178.94,165.013L180.107,164.999L181.274,164.968L182.441,164.943L183.608,164.914L184.775,164.898L185.942,164.875L187.109,164.857L188.275,164.824L189.442,164.807L190.609,164.78L191.776,164.762L192.943,164.741L194.11,164.713L195.277,164.698L196.444,164.667L197.61,164.656L198.777,164.634L199.944,164.613L201.111,164.591L202.278,164.564L203.445,164.548L204.612,164.534L205.779,164.511L206.945,164.482L208.112,164.463L209.279,164.449L210.446,164.434L211.613,164.412L212.78,164.384L213.947,164.372L215.113,164.35L216.28,164.333L217.447,164.309L218.614,164.298L219.781,164.285L220.948,164.255L222.115,164.239L223.282,164.223L224.449,164.203L225.616,164.182L226.782,164.172L227.949,164.144L229.116,164.136L230.283,164.114L231.45,164.102L232.617,164.079L233.784,164.07L234.951,164.044L236.117,164.033L237.284,164.011L238.451,163.999L239.618,163.984L240.785,163.963L241.952,163.946L243.119,163.929L244.286,163.909L245.452,163.907L246.619,163.877L247.786,163.878L248.953,163.848L250.12,163.838L251.288,163.825L252.452,163.803L253.62,163.793L254.788,163.765L255.955,163.762L257.12,163.746L258.288,163.728L259.455,163.706L260.623,163.712L261.788,163.682L262.955,163.671L264.123,163.655L265.29,163.64L266.455,163.634L267.623,163.616L268.79,163.596L269.958,163.583L271.125,163.571L272.29,163.55L273.458,163.547L274.625,163.53L275.793,163.517L276.958,163.497L278.125,163.49L279.293,163.477L280.46,163.449L281.625,163.455L282.793,163.428L283.96,163.433L285.128,163.399L286.293,163.39L287.46,163.387L288.628,163.355L289.795,163.362L290.96,163.342L292.128,163.324L293.295,163.324L294.463,163.298L295.628,163.294L296.795,163.273L297.963,163.272L299.13,163.247L300.295,163.244L301.463,163.224L302.63,163.216L303.798,163.199L304.963,163.198L306.13,163.172L307.298,163.163L308.465,163.165L309.63,163.148L310.798,163.13L311.965,163.123L313.133,163.104L314.298,163.093L315.465,163.082L316.633,163.085L317.8,163.061L318.965,163.047L320.133,163.042L321.3,163.021L322.467,163.014L323.633,163.004L324.8,162.992L325.967,162.982L327.135,162.963L328.3,162.958L329.467,162.952L330.635,162.939L331.803,162.931L332.967,162.917L334.135,162.907L335.303,162.889L336.47,162.883L337.635,162.871L338.803,162.86L339.97,162.853L341.138,162.835L342.303,162.832L343.47,162.826L344.638,162.801L345.805,162.801L346.97,162.79L348.138,162.778L349.305,162.763L350.473,162.757L351.638,162.745L352.805,162.742L353.973,162.723L355.14,162.723L356.305,162.704L357.473,162.692L358.64,162.7L359.808,162.668L360.973,162.655L362.14,162.656L363.308,162.649L364.475,162.637L365.64,162.631L366.808,162.619L367.975,162.602L369.143,162.599L370.308,162.593L371.475,162.587L372.643,162.557L373.81,162.562L374.975,162.554L376.143,162.543L377.31,162.519L378.478,162.534L379.643,162.515L380.81,162.499L381.978,162.489L383.145,162.483L384.31,162.485L385.478,162.454L386.645,162.468L387.813,162.441L388.978,162.438L390.145,162.43L391.313,162.423L392.48,162.416L393.645,162.4L394.813,162.394L395.98,162.392L397.148,162.374L398.313,162.372L399.48,162.358L400.648,162.345L401.815,162.35L402.98,162.329L404.148,162.323L405.315,162.312L406.483,162.305L407.648,162.3L408.815,162.292L409.983,162.28L411.15,162.274L412.315,162.263L413.483,162.259L414.65,162.246L415.818,162.238L416.983,162.242L418.15,162.214L419.318,162.224L420.485,162.204L421.652,162.185L422.818,162.193L423.985,162.183L425.152,162.167L426.32,162.166L427.485,162.152L428.652,162.16L429.82,162.143L430.988,162.137L432.152,162.125L433.32,162.11L434.488,162.118L435.655,162.091L436.82,162.096L437.988,162.088L439.155,162.078L440.323,162.07L441.488,162.063L442.655,162.049L443.823,162.046L444.99,162.034L446.155,162.034L447.323,162.02L448.49,162.016L449.658,162.011L450.823,162.003L451.99,161.989L453.158,161.986L454.325,161.974L455.49,161.975L456.658,161.959L457.825,161.955L458.993,161.949L460.158,161.932L461.325,161.949L462.493,161.909L463.66,161.926L464.825,161.912L465.993,161.907L467.16,161.894L468.328,161.887L469.493,161.894L470.66,161.867L471.828,161.868L472.995,161.861L474.16,161.852L475.328,161.836L476.495,161.841L477.663,161.838L478.828,161.817L479.995,161.817L481.163,161.807L482.33,161.808L483.495,161.797L484.663,161.784L485.83,161.78L486.998,161.784L488.163,161.766L489.33,161.762L490.498,161.752L491.665,161.748L492.83,161.738L493.998,161.734L495.165,161.723L496.333,161.726L497.498,161.71L498.665,161.708L499.833,161.698L501,161.689L502.165,161.688L503.333,161.679L504.5,161.67L505.668,161.666L506.833,161.664L508,161.647L509.168,161.653L510.335,161.637L511.5,161.625L512.668,161.628L513.835,161.62L515.003,161.624L516.168,161.605L517.335,161.601L518.503,161.592L519.67,161.598L520.835,161.568L522.003,161.579L523.17,161.569L524.338,161.564L525.503,161.551L526.67,161.556L527.838,161.544L529.005,161.533L530.17,161.523L531.338,161.527L532.505,161.517L533.673,161.517L534.838,161.496L536.005,161.501L537.173,161.494L538.34,161.491L539.505,161.478L540.673,161.46L541.84,161.473L543.008,161.477L544.173,161.442L545.34,161.452L546.508,161.44L547.675,161.443L548.84,161.424L550.008,161.431L551.175,161.417L552.343,161.419L553.508,161.404L554.675,161.398L555.843,161.394L557.01,161.396L558.175,161.381L559.343,161.375L560.51,161.366L561.678,161.372L562.843,161.361L564.01,161.356L565.178,161.349L566.345,161.336L567.51,161.326L568.678,161.332L569.845,161.342L571.013,161.312L572.178,161.315L573.345,161.309L574.513,161.303L575.68,161.299L576.848,161.29L578.013,161.282L579.18,161.28L580.348,161.277L581.515,161.274L582.68,161.246L583.848,161.255L585.015,161.25L586.183,161.246L587.348,161.234L588.515,161.239L589.683,161.223L590.85,161.221L592.015,161.22L593.183,161.215L594.35,161.202L595.518,161.198L596.683,161.201L597.85,161.199L599.018,161.174L600.185,161.173L601.35,161.179L602.518,161.168L603.685,161.17L604.853,161.14L606.018,161.156L607.185,161.135L608.353,161.15L609.52,161.135L610.685,161.124L611.853,161.13L613.02,161.121L614.188,161.112L615.353,161.108L616.52,161.099L617.688,161.098L618.855,161.096L620.02,161.091L622.355,161.072L623.523,161.065L624.688,161.071L625.855,161.059L627.023,161.06" style="fill:none;fill-rule:nonzero;stroke:rgb(127,127,127);stroke-width:1.5px;"/>
</svg>
